<mxfile host="Electron" modified="2023-10-18T17:01:36.261Z" agent="Mozilla/5.0 (Windows NT 10.0; Win64; x64) AppleWebKit/537.36 (KHTML, like Gecko) draw.io/22.0.2 Chrome/114.0.5735.289 Electron/25.8.4 Safari/537.36" etag="jCW7YamUEWdLP91SDP7p" version="22.0.2" type="device">
  <diagram name="Page-1" id="f-tqmfMpfMZ7qoQ5nY5d">
    <mxGraphModel dx="3267" dy="1362" grid="1" gridSize="10" guides="1" tooltips="1" connect="1" arrows="1" fold="1" page="1" pageScale="1" pageWidth="850" pageHeight="1100" math="0" shadow="0">
      <root>
        <mxCell id="0" />
        <mxCell id="1" parent="0" />
        <mxCell id="Ye74qde-6JXeKK0IROxp-29" value="&lt;p style=&quot;margin: 4px 0px 0px; text-align: center; font-size: 18px;&quot;&gt;Hall&lt;/p&gt;&lt;hr style=&quot;font-size: 18px;&quot;&gt;&lt;p style=&quot;margin: 0px 0px 0px 4px; font-size: 18px;&quot;&gt;Hall number&lt;/p&gt;&amp;nbsp;Reservation times&lt;br&gt;&amp;nbsp;Number of seats&amp;nbsp;&lt;br&gt;&lt;hr style=&quot;font-size: 18px;&quot;&gt;&lt;p style=&quot;margin: 0px 0px 0px 4px; font-size: 18px;&quot;&gt;&lt;br style=&quot;font-size: 18px;&quot;&gt;&lt;/p&gt;&lt;p style=&quot;margin: 0px 0px 0px 4px; font-size: 18px;&quot;&gt;&lt;br style=&quot;font-size: 18px;&quot;&gt;&lt;/p&gt;" style="verticalAlign=top;align=left;overflow=fill;fontSize=18;fontFamily=Helvetica;html=1;fontStyle=1" parent="1" vertex="1">
          <mxGeometry x="-750" y="60" width="250" height="160" as="geometry" />
        </mxCell>
        <mxCell id="Ye74qde-6JXeKK0IROxp-30" value="&lt;p style=&quot;margin: 4px 0px 0px; text-align: center; font-size: 18px;&quot;&gt;movie&lt;/p&gt;&lt;hr style=&quot;font-size: 18px;&quot;&gt;&lt;p style=&quot;margin: 0px 0px 0px 4px; font-size: 18px;&quot;&gt;&lt;/p&gt;&amp;nbsp;Movie ID&lt;br&gt;&amp;nbsp;Movie name&lt;br&gt;&amp;nbsp;Description&lt;br&gt;&amp;nbsp;Type&lt;br&gt;&amp;nbsp;Date&lt;br&gt;&amp;nbsp;HallIDnum&lt;br&gt;&amp;nbsp;Show time&amp;nbsp;&lt;br&gt;&amp;nbsp; &amp;nbsp; &amp;nbsp;start time&lt;br&gt;&amp;nbsp; &amp;nbsp; &amp;nbsp;end time&lt;br&gt;&lt;hr style=&quot;font-size: 18px;&quot;&gt;&lt;p style=&quot;margin: 0px 0px 0px 4px; font-size: 18px;&quot;&gt;&lt;br style=&quot;font-size: 18px;&quot;&gt;&lt;/p&gt;&lt;p style=&quot;margin: 0px 0px 0px 4px; font-size: 18px;&quot;&gt;&lt;br style=&quot;font-size: 18px;&quot;&gt;&lt;/p&gt;" style="verticalAlign=top;align=left;overflow=fill;fontSize=18;fontFamily=Helvetica;html=1;fontStyle=1" parent="1" vertex="1">
          <mxGeometry x="-370" y="20" width="250" height="240" as="geometry" />
        </mxCell>
        <mxCell id="Ye74qde-6JXeKK0IROxp-33" value="&lt;p style=&quot;margin: 4px 0px 0px; text-align: center; font-size: 18px;&quot;&gt;Tiket&lt;/p&gt;&lt;hr style=&quot;font-size: 18px;&quot;&gt;&lt;p style=&quot;margin: 0px 0px 0px 4px; font-size: 18px;&quot;&gt;&amp;nbsp;Tiket ID&lt;/p&gt;&amp;nbsp;Name of the movie&lt;br&gt;&amp;nbsp;Date&lt;br&gt;&amp;nbsp;Time&lt;br&gt;&amp;nbsp;Hall num&lt;br&gt;&amp;nbsp;Price&lt;br&gt;&amp;nbsp;Seat num&lt;br&gt;&amp;nbsp;Remaining num&lt;br&gt;&lt;br&gt;&lt;br&gt;&lt;br&gt;&lt;hr style=&quot;font-size: 18px;&quot;&gt;&lt;p style=&quot;margin: 0px 0px 0px 4px; font-size: 18px;&quot;&gt;&lt;br style=&quot;font-size: 18px;&quot;&gt;&lt;/p&gt;&lt;p style=&quot;margin: 0px 0px 0px 4px; font-size: 18px;&quot;&gt;&lt;br style=&quot;font-size: 18px;&quot;&gt;&lt;/p&gt;" style="verticalAlign=top;align=left;overflow=fill;fontSize=18;fontFamily=Helvetica;html=1;fontStyle=1" parent="1" vertex="1">
          <mxGeometry x="-257" y="340" width="250" height="330" as="geometry" />
        </mxCell>
        <mxCell id="Ye74qde-6JXeKK0IROxp-35" value="&lt;p style=&quot;margin: 4px 0px 0px; text-align: center; font-size: 18px;&quot;&gt;Snack&lt;/p&gt;&lt;hr style=&quot;font-size: 18px;&quot;&gt;&lt;p style=&quot;margin: 0px 0px 0px 4px; font-size: 18px;&quot;&gt;Snack ID&lt;/p&gt;&lt;p style=&quot;margin: 0px 0px 0px 4px; font-size: 18px;&quot;&gt;Price&lt;/p&gt;&lt;p style=&quot;margin: 0px 0px 0px 4px; font-size: 18px;&quot;&gt;&lt;span style=&quot;background-color: initial;&quot;&gt;Name&lt;/span&gt;&lt;/p&gt;&amp;nbsp;Quantity Available&lt;br&gt;&amp;nbsp;Quantity to order&lt;br&gt;&lt;hr style=&quot;font-size: 18px;&quot;&gt;&lt;p style=&quot;margin: 0px 0px 0px 4px; font-size: 18px;&quot;&gt;&lt;br style=&quot;font-size: 18px;&quot;&gt;&lt;/p&gt;&lt;p style=&quot;margin: 0px 0px 0px 4px; font-size: 18px;&quot;&gt;&lt;br style=&quot;font-size: 18px;&quot;&gt;&lt;/p&gt;" style="verticalAlign=top;align=left;overflow=fill;fontSize=18;fontFamily=Helvetica;html=1;fontStyle=1" parent="1" vertex="1">
          <mxGeometry x="-1460" y="790" width="250" height="170" as="geometry" />
        </mxCell>
        <mxCell id="Ye74qde-6JXeKK0IROxp-36" value="&lt;br class=&quot;Apple-interchange-newline&quot;&gt;" style="text;whiteSpace=wrap;html=1;" parent="1" vertex="1">
          <mxGeometry x="-510" y="880" width="30" height="40" as="geometry" />
        </mxCell>
        <mxCell id="Ye74qde-6JXeKK0IROxp-37" value="&lt;p style=&quot;margin: 4px 0px 0px; text-align: center; font-size: 18px;&quot;&gt;custamer&lt;/p&gt;&lt;hr style=&quot;font-size: 18px;&quot;&gt;&lt;p style=&quot;margin: 0px 0px 0px 4px; font-size: 18px;&quot;&gt;&amp;nbsp;ID&lt;/p&gt;&lt;p style=&quot;margin: 0px 0px 0px 4px; font-size: 18px;&quot;&gt;&amp;nbsp;Name&lt;/p&gt;&lt;p style=&quot;margin: 0px 0px 0px 4px; font-size: 18px;&quot;&gt;&lt;br&gt;&lt;/p&gt;&lt;br&gt;&lt;hr style=&quot;font-size: 18px;&quot;&gt;&lt;p style=&quot;margin: 0px 0px 0px 4px; font-size: 18px;&quot;&gt;&lt;br style=&quot;font-size: 18px;&quot;&gt;&lt;/p&gt;&lt;p style=&quot;margin: 0px 0px 0px 4px; font-size: 18px;&quot;&gt;&lt;br style=&quot;font-size: 18px;&quot;&gt;&lt;/p&gt;" style="verticalAlign=top;align=left;overflow=fill;fontSize=18;fontFamily=Helvetica;html=1;fontStyle=1" parent="1" vertex="1">
          <mxGeometry x="-620" y="535" width="250" height="100" as="geometry" />
        </mxCell>
        <mxCell id="Ye74qde-6JXeKK0IROxp-38" value="&lt;p style=&quot;margin: 4px 0px 0px; text-align: center; font-size: 18px;&quot;&gt;Bill&lt;/p&gt;&lt;hr style=&quot;font-size: 18px;&quot;&gt;&lt;p style=&quot;margin: 0px 0px 0px 4px; font-size: 18px;&quot;&gt;&lt;/p&gt;&amp;nbsp;ID&lt;br&gt;&lt;p style=&quot;border-color: var(--border-color); margin: 0px 0px 0px 4px;&quot;&gt;total price&lt;br style=&quot;border-color: var(--border-color);&quot;&gt;&lt;/p&gt;&lt;p style=&quot;border-color: var(--border-color); margin: 0px 0px 0px 4px;&quot;&gt;&lt;br style=&quot;border-color: var(--border-color);&quot;&gt;&lt;/p&gt;&lt;hr style=&quot;font-size: 18px;&quot;&gt;&lt;p style=&quot;margin: 0px 0px 0px 4px; font-size: 18px;&quot;&gt;&lt;br&gt;&lt;/p&gt;" style="verticalAlign=top;align=left;overflow=fill;fontSize=18;fontFamily=Helvetica;html=1;fontStyle=1" parent="1" vertex="1">
          <mxGeometry x="-1030" y="690" width="250" height="120" as="geometry" />
        </mxCell>
        <mxCell id="Ye74qde-6JXeKK0IROxp-39" value="&lt;p style=&quot;margin: 4px 0px 0px; text-align: center; font-size: 18px;&quot;&gt;Employee&lt;/p&gt;&lt;hr style=&quot;font-size: 18px;&quot;&gt;&lt;p style=&quot;margin: 0px 0px 0px 4px; font-size: 18px;&quot;&gt;&lt;/p&gt;&amp;nbsp;IDnum&lt;br&gt;&amp;nbsp;Name&lt;br&gt;&amp;nbsp;Gender&lt;br&gt;&amp;nbsp;Birthday&lt;br&gt;&amp;nbsp;Phone num&lt;br&gt;&amp;nbsp;Salary&lt;br&gt;&amp;nbsp;&lt;br&gt;&lt;hr style=&quot;font-size: 18px;&quot;&gt;&lt;p style=&quot;margin: 0px 0px 0px 4px; font-size: 18px;&quot;&gt;-age&lt;/p&gt;&lt;p style=&quot;margin: 0px 0px 0px 4px; font-size: 18px;&quot;&gt;&lt;br style=&quot;font-size: 18px;&quot;&gt;&lt;/p&gt;" style="verticalAlign=top;align=left;overflow=fill;fontSize=18;fontFamily=Helvetica;html=1;fontStyle=1" parent="1" vertex="1">
          <mxGeometry x="-1100" y="250" width="250" height="270" as="geometry" />
        </mxCell>
        <mxCell id="Ye74qde-6JXeKK0IROxp-40" value="&lt;p style=&quot;margin: 4px 0px 0px; text-align: center; font-size: 18px;&quot;&gt;address&lt;/p&gt;&lt;hr style=&quot;font-size: 18px;&quot;&gt;&lt;p style=&quot;margin: 0px 0px 0px 4px; font-size: 18px;&quot;&gt;&lt;/p&gt;&amp;nbsp;City&lt;br&gt;&amp;nbsp;Street&lt;br&gt;&lt;hr style=&quot;font-size: 18px;&quot;&gt;&lt;p style=&quot;margin: 0px 0px 0px 4px; font-size: 18px;&quot;&gt;&lt;br style=&quot;font-size: 18px;&quot;&gt;&lt;/p&gt;&lt;p style=&quot;margin: 0px 0px 0px 4px; font-size: 18px;&quot;&gt;&lt;br style=&quot;font-size: 18px;&quot;&gt;&lt;/p&gt;" style="verticalAlign=top;align=left;overflow=fill;fontSize=18;fontFamily=Helvetica;html=1;fontStyle=1" parent="1" vertex="1">
          <mxGeometry x="-1350" y="40" width="250" height="120" as="geometry" />
        </mxCell>
        <mxCell id="WfwrwntMDEFSlIYNpfYc-13" value="" style="endArrow=none;html=1;rounded=0;fontFamily=Helvetica;fontSize=12;fontColor=default;entryX=1;entryY=0.5;entryDx=0;entryDy=0;exitX=0;exitY=0.5;exitDx=0;exitDy=0;" parent="1" source="Ye74qde-6JXeKK0IROxp-30" target="Ye74qde-6JXeKK0IROxp-29" edge="1">
          <mxGeometry width="50" height="50" relative="1" as="geometry">
            <mxPoint x="-690" y="480" as="sourcePoint" />
            <mxPoint x="-640" y="430" as="targetPoint" />
            <Array as="points" />
          </mxGeometry>
        </mxCell>
        <mxCell id="WfwrwntMDEFSlIYNpfYc-15" value="" style="endArrow=none;html=1;rounded=0;fontFamily=Helvetica;fontSize=12;fontColor=default;entryX=0;entryY=0.25;entryDx=0;entryDy=0;" parent="1" target="Ye74qde-6JXeKK0IROxp-33" edge="1">
          <mxGeometry width="50" height="50" relative="1" as="geometry">
            <mxPoint x="-850" y="420" as="sourcePoint" />
            <mxPoint x="-840" y="300" as="targetPoint" />
            <Array as="points" />
          </mxGeometry>
        </mxCell>
        <mxCell id="WfwrwntMDEFSlIYNpfYc-23" value="" style="endArrow=none;html=1;rounded=0;fontFamily=Helvetica;fontSize=12;fontColor=default;exitX=0.16;exitY=-0.016;exitDx=0;exitDy=0;exitPerimeter=0;entryX=0.45;entryY=1.015;entryDx=0;entryDy=0;entryPerimeter=0;" parent="1" source="Ye74qde-6JXeKK0IROxp-38" target="Ye74qde-6JXeKK0IROxp-39" edge="1">
          <mxGeometry width="50" height="50" relative="1" as="geometry">
            <mxPoint x="-960" y="730" as="sourcePoint" />
            <mxPoint x="-990" y="540" as="targetPoint" />
            <Array as="points">
              <mxPoint x="-990" y="610" />
            </Array>
          </mxGeometry>
        </mxCell>
        <mxCell id="WfwrwntMDEFSlIYNpfYc-29" value="" style="endArrow=none;html=1;rounded=0;fontFamily=Helvetica;fontSize=12;fontColor=default;entryX=-0.009;entryY=0.671;entryDx=0;entryDy=0;entryPerimeter=0;exitX=0.663;exitY=-0.007;exitDx=0;exitDy=0;exitPerimeter=0;" parent="1" source="Ye74qde-6JXeKK0IROxp-39" target="Ye74qde-6JXeKK0IROxp-29" edge="1">
          <mxGeometry width="50" height="50" relative="1" as="geometry">
            <mxPoint x="-950" y="210" as="sourcePoint" />
            <mxPoint x="-900" y="160" as="targetPoint" />
            <Array as="points">
              <mxPoint x="-934" y="167" />
            </Array>
          </mxGeometry>
        </mxCell>
        <mxCell id="WfwrwntMDEFSlIYNpfYc-30" value="" style="endArrow=none;html=1;rounded=0;fontFamily=Helvetica;fontSize=12;fontColor=default;exitX=0.404;exitY=-0.001;exitDx=0;exitDy=0;exitPerimeter=0;" parent="1" source="Ye74qde-6JXeKK0IROxp-39" edge="1">
          <mxGeometry width="50" height="50" relative="1" as="geometry">
            <mxPoint x="-980" y="390" as="sourcePoint" />
            <mxPoint x="-1080" y="160" as="targetPoint" />
            <Array as="points">
              <mxPoint x="-1000" y="160" />
            </Array>
          </mxGeometry>
        </mxCell>
        <mxCell id="WfwrwntMDEFSlIYNpfYc-31" value="" style="endArrow=none;html=1;rounded=0;fontFamily=Helvetica;fontSize=12;fontColor=default;exitX=0.079;exitY=0;exitDx=0;exitDy=0;exitPerimeter=0;" parent="1" source="Ye74qde-6JXeKK0IROxp-39" edge="1">
          <mxGeometry width="50" height="50" relative="1" as="geometry">
            <mxPoint x="-1080" y="240" as="sourcePoint" />
            <mxPoint x="-1080" y="160" as="targetPoint" />
            <Array as="points">
              <mxPoint x="-1080" y="200" />
            </Array>
          </mxGeometry>
        </mxCell>
        <mxCell id="WfwrwntMDEFSlIYNpfYc-32" value="*&lt;br&gt;Supervisor&amp;nbsp;" style="text;html=1;strokeColor=none;fillColor=none;align=center;verticalAlign=middle;whiteSpace=wrap;rounded=0;fontSize=12;fontFamily=Helvetica;fontColor=default;" parent="1" vertex="1">
          <mxGeometry x="-1140" y="220" width="60" height="30" as="geometry" />
        </mxCell>
        <mxCell id="pPmnraLCHtTLtx8yH-ZN-2" value="" style="endArrow=none;dashed=1;html=1;dashPattern=1 3;strokeWidth=2;rounded=0;entryX=0.547;entryY=-0.039;entryDx=0;entryDy=0;entryPerimeter=0;" parent="1" target="pPmnraLCHtTLtx8yH-ZN-3" edge="1">
          <mxGeometry width="50" height="50" relative="1" as="geometry">
            <mxPoint x="-790" y="170" as="sourcePoint" />
            <mxPoint x="-800" y="170" as="targetPoint" />
          </mxGeometry>
        </mxCell>
        <mxCell id="pPmnraLCHtTLtx8yH-ZN-3" value="Works" style="swimlane;fontStyle=1;align=center;verticalAlign=top;childLayout=stackLayout;horizontal=1;startSize=26;horizontalStack=0;resizeParent=1;resizeParentMax=0;resizeLast=0;collapsible=1;marginBottom=0;whiteSpace=wrap;html=1;" parent="1" vertex="1">
          <mxGeometry x="-840" y="240" width="90" height="52" as="geometry" />
        </mxCell>
        <mxCell id="pPmnraLCHtTLtx8yH-ZN-4" value="Hours" style="text;strokeColor=none;fillColor=none;align=left;verticalAlign=top;spacingLeft=4;spacingRight=4;overflow=hidden;rotatable=0;points=[[0,0.5],[1,0.5]];portConstraint=eastwest;whiteSpace=wrap;html=1;" parent="pPmnraLCHtTLtx8yH-ZN-3" vertex="1">
          <mxGeometry y="26" width="90" height="26" as="geometry" />
        </mxCell>
        <mxCell id="pPmnraLCHtTLtx8yH-ZN-11" value="1&lt;br&gt;Supervise" style="text;html=1;strokeColor=none;fillColor=none;align=center;verticalAlign=middle;whiteSpace=wrap;rounded=0;" parent="1" vertex="1">
          <mxGeometry x="-1060" y="220" width="60" height="30" as="geometry" />
        </mxCell>
        <mxCell id="RIbbEanmppBnDyKD_0Xd-1" value="Text" style="text;html=1;strokeColor=none;fillColor=none;align=center;verticalAlign=middle;whiteSpace=wrap;rounded=0;" parent="1" vertex="1">
          <mxGeometry x="-840" y="180" width="60" height="30" as="geometry" />
        </mxCell>
        <mxCell id="RIbbEanmppBnDyKD_0Xd-2" value="Text" style="text;html=1;strokeColor=none;fillColor=none;align=center;verticalAlign=middle;whiteSpace=wrap;rounded=0;" parent="1" vertex="1">
          <mxGeometry x="-840" y="180" width="60" height="30" as="geometry" />
        </mxCell>
        <mxCell id="RIbbEanmppBnDyKD_0Xd-3" value="Text" style="text;html=1;strokeColor=none;fillColor=none;align=center;verticalAlign=middle;whiteSpace=wrap;rounded=0;" parent="1" vertex="1">
          <mxGeometry x="-840" y="180" width="60" height="30" as="geometry" />
        </mxCell>
        <mxCell id="RIbbEanmppBnDyKD_0Xd-4" value="Text" style="text;html=1;strokeColor=none;fillColor=none;align=center;verticalAlign=middle;whiteSpace=wrap;rounded=0;" parent="1" vertex="1">
          <mxGeometry x="-840" y="180" width="60" height="30" as="geometry" />
        </mxCell>
        <mxCell id="RIbbEanmppBnDyKD_0Xd-5" value="Text" style="text;html=1;strokeColor=none;fillColor=none;align=center;verticalAlign=middle;whiteSpace=wrap;rounded=0;" parent="1" vertex="1">
          <mxGeometry x="-840" y="180" width="60" height="30" as="geometry" />
        </mxCell>
        <mxCell id="RIbbEanmppBnDyKD_0Xd-6" value="Text" style="text;html=1;strokeColor=none;fillColor=none;align=center;verticalAlign=middle;whiteSpace=wrap;rounded=0;" parent="1" vertex="1">
          <mxGeometry x="-840" y="180" width="60" height="30" as="geometry" />
        </mxCell>
        <mxCell id="RIbbEanmppBnDyKD_0Xd-7" value="Text" style="text;html=1;strokeColor=none;fillColor=none;align=center;verticalAlign=middle;whiteSpace=wrap;rounded=0;" parent="1" vertex="1">
          <mxGeometry x="-840" y="180" width="60" height="30" as="geometry" />
        </mxCell>
        <mxCell id="RIbbEanmppBnDyKD_0Xd-8" value="Text" style="text;html=1;strokeColor=none;fillColor=none;align=center;verticalAlign=middle;whiteSpace=wrap;rounded=0;" parent="1" vertex="1">
          <mxGeometry x="-840" y="180" width="60" height="30" as="geometry" />
        </mxCell>
        <mxCell id="RIbbEanmppBnDyKD_0Xd-9" value="Text" style="text;html=1;strokeColor=none;fillColor=none;align=center;verticalAlign=middle;whiteSpace=wrap;rounded=0;" parent="1" vertex="1">
          <mxGeometry x="-840" y="180" width="60" height="30" as="geometry" />
        </mxCell>
        <mxCell id="RIbbEanmppBnDyKD_0Xd-10" value="Text" style="text;html=1;strokeColor=none;fillColor=none;align=center;verticalAlign=middle;whiteSpace=wrap;rounded=0;" parent="1" vertex="1">
          <mxGeometry x="-840" y="180" width="60" height="30" as="geometry" />
        </mxCell>
        <mxCell id="RIbbEanmppBnDyKD_0Xd-11" value="Text" style="text;html=1;strokeColor=none;fillColor=none;align=center;verticalAlign=middle;whiteSpace=wrap;rounded=0;" parent="1" vertex="1">
          <mxGeometry x="-840" y="180" width="60" height="30" as="geometry" />
        </mxCell>
        <mxCell id="RIbbEanmppBnDyKD_0Xd-12" value="Text" style="text;html=1;strokeColor=none;fillColor=none;align=center;verticalAlign=middle;whiteSpace=wrap;rounded=0;" parent="1" vertex="1">
          <mxGeometry x="-840" y="180" width="60" height="30" as="geometry" />
        </mxCell>
        <mxCell id="RIbbEanmppBnDyKD_0Xd-13" value="Text" style="text;html=1;strokeColor=none;fillColor=none;align=center;verticalAlign=middle;whiteSpace=wrap;rounded=0;" parent="1" vertex="1">
          <mxGeometry x="-840" y="180" width="60" height="30" as="geometry" />
        </mxCell>
        <mxCell id="RIbbEanmppBnDyKD_0Xd-14" value="&lt;b&gt;&lt;font style=&quot;font-size: 14px;&quot;&gt;0..1&lt;/font&gt;&lt;/b&gt;" style="text;html=1;strokeColor=none;fillColor=none;align=center;verticalAlign=middle;whiteSpace=wrap;rounded=0;" parent="1" vertex="1">
          <mxGeometry x="-860" y="400" width="60" height="30" as="geometry" />
        </mxCell>
        <mxCell id="RIbbEanmppBnDyKD_0Xd-15" value="&lt;b&gt;&lt;font style=&quot;font-size: 14px;&quot;&gt;1..*&lt;/font&gt;&lt;/b&gt;" style="text;html=1;strokeColor=none;fillColor=none;align=center;verticalAlign=middle;whiteSpace=wrap;rounded=0;" parent="1" vertex="1">
          <mxGeometry x="-300" y="380" width="60" height="30" as="geometry" />
        </mxCell>
        <mxCell id="RIbbEanmppBnDyKD_0Xd-16" value="&lt;b&gt;&lt;font style=&quot;font-size: 14px;&quot;&gt;1..1&lt;/font&gt;&lt;/b&gt;" style="text;html=1;strokeColor=none;fillColor=none;align=center;verticalAlign=middle;whiteSpace=wrap;rounded=0;" parent="1" vertex="1">
          <mxGeometry x="-290" y="260" width="60" height="30" as="geometry" />
        </mxCell>
        <mxCell id="RIbbEanmppBnDyKD_0Xd-18" value="&lt;b&gt;&lt;font style=&quot;font-size: 14px;&quot;&gt;0..*&lt;/font&gt;&lt;/b&gt;" style="text;html=1;strokeColor=none;fillColor=none;align=center;verticalAlign=middle;whiteSpace=wrap;rounded=0;" parent="1" vertex="1">
          <mxGeometry x="-510" y="110" width="60" height="30" as="geometry" />
        </mxCell>
        <mxCell id="RIbbEanmppBnDyKD_0Xd-19" value="&lt;b&gt;&lt;font style=&quot;font-size: 14px;&quot;&gt;0..*&lt;/font&gt;&lt;/b&gt;" style="text;html=1;strokeColor=none;fillColor=none;align=center;verticalAlign=middle;whiteSpace=wrap;rounded=0;" parent="1" vertex="1">
          <mxGeometry x="-980" y="220" width="60" height="30" as="geometry" />
        </mxCell>
        <mxCell id="RIbbEanmppBnDyKD_0Xd-20" value="&lt;b&gt;&lt;font style=&quot;font-size: 14px;&quot;&gt;0..*&lt;/font&gt;&lt;/b&gt;" style="text;html=1;strokeColor=none;fillColor=none;align=center;verticalAlign=middle;whiteSpace=wrap;rounded=0;" parent="1" vertex="1">
          <mxGeometry x="-800" y="140" width="60" height="30" as="geometry" />
        </mxCell>
        <mxCell id="RIbbEanmppBnDyKD_0Xd-21" value="&lt;span style=&quot;font-size: 14px;&quot;&gt;&lt;b&gt;1..*&lt;/b&gt;&lt;/span&gt;" style="text;html=1;strokeColor=none;fillColor=none;align=center;verticalAlign=middle;whiteSpace=wrap;rounded=0;" parent="1" vertex="1">
          <mxGeometry x="-420" y="110" width="60" height="30" as="geometry" />
        </mxCell>
        <mxCell id="RIbbEanmppBnDyKD_0Xd-23" value="&lt;span style=&quot;font-size: 14px;&quot;&gt;&lt;b&gt;1..1&lt;/b&gt;&lt;/span&gt;" style="text;html=1;strokeColor=none;fillColor=none;align=center;verticalAlign=middle;whiteSpace=wrap;rounded=0;" parent="1" vertex="1">
          <mxGeometry x="-310" y="535" width="60" height="30" as="geometry" />
        </mxCell>
        <mxCell id="RIbbEanmppBnDyKD_0Xd-24" value="&lt;b&gt;&lt;font style=&quot;font-size: 14px;&quot;&gt;1..1&lt;/font&gt;&lt;/b&gt;" style="text;html=1;strokeColor=none;fillColor=none;align=center;verticalAlign=middle;whiteSpace=wrap;rounded=0;" parent="1" vertex="1">
          <mxGeometry x="-380" y="535" width="60" height="30" as="geometry" />
        </mxCell>
        <mxCell id="RIbbEanmppBnDyKD_0Xd-27" value="&lt;b&gt;&lt;font style=&quot;font-size: 14px;&quot;&gt;0..1&lt;/font&gt;&lt;/b&gt;" style="text;html=1;strokeColor=none;fillColor=none;align=center;verticalAlign=middle;whiteSpace=wrap;rounded=0;" parent="1" vertex="1">
          <mxGeometry x="-1040" y="520" width="60" height="30" as="geometry" />
        </mxCell>
        <mxCell id="RIbbEanmppBnDyKD_0Xd-28" value="&lt;b&gt;&lt;font style=&quot;font-size: 14px;&quot;&gt;1..1&lt;/font&gt;&lt;/b&gt;" style="text;html=1;strokeColor=none;fillColor=none;align=center;verticalAlign=middle;whiteSpace=wrap;rounded=0;" parent="1" vertex="1">
          <mxGeometry x="-1040" y="660" width="60" height="30" as="geometry" />
        </mxCell>
        <mxCell id="RIbbEanmppBnDyKD_0Xd-29" value="&lt;b&gt;&lt;font style=&quot;font-size: 14px;&quot;&gt;1..1&lt;/font&gt;&lt;/b&gt;" style="text;html=1;strokeColor=none;fillColor=none;align=center;verticalAlign=middle;whiteSpace=wrap;rounded=0;" parent="1" vertex="1">
          <mxGeometry x="-850" y="810" width="60" height="30" as="geometry" />
        </mxCell>
        <mxCell id="RIbbEanmppBnDyKD_0Xd-31" value="&lt;b&gt;&lt;font style=&quot;font-size: 14px;&quot;&gt;0..1&lt;/font&gt;&lt;/b&gt;" style="text;html=1;strokeColor=none;fillColor=none;align=center;verticalAlign=middle;whiteSpace=wrap;rounded=0;" parent="1" vertex="1">
          <mxGeometry x="-560" y="640" width="60" height="30" as="geometry" />
        </mxCell>
        <mxCell id="RIbbEanmppBnDyKD_0Xd-33" value="&lt;b&gt;&lt;font style=&quot;font-size: 14px;&quot;&gt;1..*&lt;/font&gt;&lt;/b&gt;" style="text;html=1;strokeColor=none;fillColor=none;align=center;verticalAlign=middle;whiteSpace=wrap;rounded=0;" parent="1" vertex="1">
          <mxGeometry x="-930" y="810" width="60" height="30" as="geometry" />
        </mxCell>
        <mxCell id="RIbbEanmppBnDyKD_0Xd-34" value="&lt;b&gt;&lt;font style=&quot;font-size: 14px;&quot;&gt;1..*&lt;/font&gt;&lt;/b&gt;" style="text;html=1;strokeColor=none;fillColor=none;align=center;verticalAlign=middle;whiteSpace=wrap;rounded=0;" parent="1" vertex="1">
          <mxGeometry x="-1340" y="960" width="60" height="30" as="geometry" />
        </mxCell>
        <mxCell id="F-7THp2BO6qUyMekpFGS-1" value="" style="endArrow=none;html=1;rounded=0;entryX=0.437;entryY=1.019;entryDx=0;entryDy=0;entryPerimeter=0;exitX=0.5;exitY=1;exitDx=0;exitDy=0;" edge="1" parent="1" source="Ye74qde-6JXeKK0IROxp-35" target="Ye74qde-6JXeKK0IROxp-38">
          <mxGeometry width="50" height="50" relative="1" as="geometry">
            <mxPoint x="-1040" y="970" as="sourcePoint" />
            <mxPoint x="-990" y="920" as="targetPoint" />
            <Array as="points">
              <mxPoint x="-1335" y="1000" />
              <mxPoint x="-921" y="1000" />
            </Array>
          </mxGeometry>
        </mxCell>
        <mxCell id="F-7THp2BO6qUyMekpFGS-6" value="" style="endArrow=diamondThin;endFill=1;endSize=24;html=1;rounded=0;exitX=0.342;exitY=1.034;exitDx=0;exitDy=0;exitPerimeter=0;entryX=0.001;entryY=0.678;entryDx=0;entryDy=0;entryPerimeter=0;" edge="1" parent="1">
          <mxGeometry width="160" relative="1" as="geometry">
            <mxPoint x="-1269.5" y="164.08000000000004" as="sourcePoint" />
            <mxPoint x="-1100" y="440.00000000000006" as="targetPoint" />
            <Array as="points">
              <mxPoint x="-1270.25" y="436.94" />
            </Array>
          </mxGeometry>
        </mxCell>
        <mxCell id="F-7THp2BO6qUyMekpFGS-9" value="" style="endArrow=none;html=1;rounded=0;entryX=-0.002;entryY=0.201;entryDx=0;entryDy=0;entryPerimeter=0;exitX=0.197;exitY=1.01;exitDx=0;exitDy=0;exitPerimeter=0;" edge="1" parent="1" source="Ye74qde-6JXeKK0IROxp-30" target="Ye74qde-6JXeKK0IROxp-33">
          <mxGeometry width="50" height="50" relative="1" as="geometry">
            <mxPoint x="-600" y="550" as="sourcePoint" />
            <mxPoint x="-550" y="500" as="targetPoint" />
            <Array as="points">
              <mxPoint x="-321" y="406" />
            </Array>
          </mxGeometry>
        </mxCell>
        <mxCell id="F-7THp2BO6qUyMekpFGS-10" value="" style="endArrow=none;html=1;rounded=0;entryX=-0.002;entryY=0.672;entryDx=0;entryDy=0;entryPerimeter=0;exitX=1;exitY=0.25;exitDx=0;exitDy=0;" edge="1" parent="1" source="Ye74qde-6JXeKK0IROxp-37" target="Ye74qde-6JXeKK0IROxp-33">
          <mxGeometry width="50" height="50" relative="1" as="geometry">
            <mxPoint x="-600" y="710" as="sourcePoint" />
            <mxPoint x="-550" y="660" as="targetPoint" />
          </mxGeometry>
        </mxCell>
        <mxCell id="F-7THp2BO6qUyMekpFGS-11" value="" style="endArrow=none;html=1;rounded=0;entryX=0.5;entryY=1;entryDx=0;entryDy=0;exitX=0.75;exitY=1;exitDx=0;exitDy=0;" edge="1" parent="1" source="Ye74qde-6JXeKK0IROxp-38" target="Ye74qde-6JXeKK0IROxp-37">
          <mxGeometry width="50" height="50" relative="1" as="geometry">
            <mxPoint x="-650" y="760" as="sourcePoint" />
            <mxPoint x="-600" y="710" as="targetPoint" />
            <Array as="points">
              <mxPoint x="-842" y="840" />
              <mxPoint x="-490" y="840" />
            </Array>
          </mxGeometry>
        </mxCell>
      </root>
    </mxGraphModel>
  </diagram>
</mxfile>
